# xmcd
#
# Track frame offsets: 
#        150
#        12831
#        37740
#        79275
#        94833
#        104785
#        117808
#        130840
#        135692
#        154332
#        173659
#        184178
#        203234
#
# Disc length: 3544 seconds
#
# Revision: 1
# Processed by: cddbd v1.5.2PL0 Copyright (c) Steve Scherf et al.
# Submitted via: ExactAudioCopy v0.99pb5
#
DISCID=ab0dd60d
DTITLE=Davide Cabassi - Dancing with the Orchestra
DYEAR=1900
DGENRE=Classical
TTITLE0=Trios mouvements de Petrouchka 1 Danse russe
TTITLE1=Trios mouvements de Petrouchka 2 Chez Petruchka
TTITLE2=Trios mouvements de Petrouchka 3 La semaine grasse
TTITLE3=Tanz-Suite Fur Klavier 1 Moderato
TTITLE4=Tanz-Suite Fur Klavier 2 Allegro molto
TTITLE5=Tanz-Suite Fur Klavier 3 Allegro vivave
TTITLE6=Tanz-Suite Fur Klavier 4 Molto tranquillo
TTITLE7=Tanz-Suite Fur Klavier 5 Comodo
TTITLE8=Tanz-Suite Fur Klavier 6 Finale Allegro
TTITLE9=Szenen aus "EL amor brujo" 1 Pantomime
TTITLE10=Szenen aus "EL amor brujo" 2 Danse de la frayeur
TTITLE11=Szenen aus "EL amor brujo" 3 Danse rituelle du feu
TTITLE12=La Valse
EXTD=
EXTT0=
EXTT1=
EXTT2=
EXTT3=
EXTT4=
EXTT5=
EXTT6=
EXTT7=
EXTT8=
EXTT9=
EXTT10=
EXTT11=
EXTT12=
PLAYORDER=
